# xmcd
#
# Track frame offsets:
# 150
# 16968
# 35162
# 59026
# 74493
# 91478
# 110709
# 130923
# 149540
# 170398
# 186522
#
# Disc length: 2873 seconds
#
#
# Revision: 2
# Processed by: cddbd v1.5.2PL0 Copyright (c) Steve Scherf et al.
# Submitted via: FreeRIP 2.944 
#
DISCID=af0b370b
DTITLE=Pretty Ricky - Late Night Special
DYEAR=2007
DGENRE=R&B
TTITLE0=Late Night Special
TTITLE1=On The Hotline
TTITLE2=Love Like Honey
TTITLE3=Push It Baby
TTITLE4=Leave It All Up To You
TTITLE5=Stay
TTITLE6=So Confused  feat. Butta Creamé
TTITLE7=Personal Trainer
TTITLE8=Up And Down
TTITLE9=Peer Pressure
TTITLE10=Make It Like It Was
EXTD=
EXTT0=
EXTT1=
EXTT2=
EXTT3=
EXTT4=
EXTT5=
EXTT6=
EXTT7=
EXTT8=
EXTT9=
EXTT10=
PLAYORDER=
